<mxfile host="app.diagrams.net" modified="2023-09-08T10:15:00.520Z" agent="Mozilla/5.0 (Macintosh; Intel Mac OS X 10_15_7) AppleWebKit/537.36 (KHTML, like Gecko) Chrome/116.0.0.0 Safari/537.36" etag="Qop55wxWqBz7iK3qmPb2" version="21.7.2" type="device">
  <diagram name="Page-1" id="Z0f1hleD9ibjwIztTprP">
    <mxGraphModel dx="2074" dy="1157" grid="1" gridSize="10" guides="1" tooltips="1" connect="1" arrows="1" fold="1" page="1" pageScale="1" pageWidth="827" pageHeight="1169" math="0" shadow="0">
      <root>
        <mxCell id="0" />
        <mxCell id="1" parent="0" />
        <mxCell id="ZglaTu_Lin9Fp8b_h4Ue-1" value="&lt;font style=&quot;font-size: 16px;&quot;&gt;JupyterHUB&lt;/font&gt;" style="rounded=0;whiteSpace=wrap;html=1;fillColor=#dae8fc;strokeColor=#6c8ebf;" vertex="1" parent="1">
          <mxGeometry x="40" y="120" width="100" height="30" as="geometry" />
        </mxCell>
        <mxCell id="ZglaTu_Lin9Fp8b_h4Ue-2" value="&lt;font style=&quot;font-size: 16px;&quot;&gt;Python lib&lt;/font&gt;" style="rounded=0;whiteSpace=wrap;html=1;" vertex="1" parent="1">
          <mxGeometry x="40" y="160" width="100" height="30" as="geometry" />
        </mxCell>
        <mxCell id="ZglaTu_Lin9Fp8b_h4Ue-3" value="&lt;font style=&quot;font-size: 16px;&quot;&gt;Encyclopedia GUI&lt;/font&gt;" style="rounded=0;whiteSpace=wrap;html=1;fillColor=#d5e8d4;strokeColor=#82b366;" vertex="1" parent="1">
          <mxGeometry x="150" y="120" width="140" height="70" as="geometry" />
        </mxCell>
        <mxCell id="ZglaTu_Lin9Fp8b_h4Ue-4" value="" style="strokeWidth=2;html=1;shape=mxgraph.flowchart.annotation_2;align=left;labelPosition=right;pointerEvents=1;" vertex="1" parent="1">
          <mxGeometry x="290" y="132.5" width="20" height="45" as="geometry" />
        </mxCell>
        <mxCell id="ZglaTu_Lin9Fp8b_h4Ue-5" value="&lt;font style=&quot;font-size: 16px;&quot;&gt;GUI components&lt;/font&gt;" style="rounded=0;whiteSpace=wrap;html=1;" vertex="1" parent="1">
          <mxGeometry x="310" y="120" width="130" height="30" as="geometry" />
        </mxCell>
        <mxCell id="ZglaTu_Lin9Fp8b_h4Ue-6" value="&lt;font style=&quot;font-size: 16px;&quot;&gt;GUI API client lib&lt;/font&gt;" style="rounded=0;whiteSpace=wrap;html=1;" vertex="1" parent="1">
          <mxGeometry x="310" y="160" width="130" height="30" as="geometry" />
        </mxCell>
        <mxCell id="ZglaTu_Lin9Fp8b_h4Ue-8" value="&lt;font style=&quot;font-size: 16px;&quot;&gt;API (endpoints: upload, raw, repo, archive)&lt;/font&gt;" style="rounded=0;whiteSpace=wrap;html=1;" vertex="1" parent="1">
          <mxGeometry x="40" y="200" width="400" height="30" as="geometry" />
        </mxCell>
        <mxCell id="ZglaTu_Lin9Fp8b_h4Ue-9" value="&lt;font style=&quot;font-size: 16px;&quot;&gt;files&lt;/font&gt;" style="rounded=0;whiteSpace=wrap;html=1;" vertex="1" parent="1">
          <mxGeometry x="40" y="240" width="100" height="110" as="geometry" />
        </mxCell>
        <mxCell id="ZglaTu_Lin9Fp8b_h4Ue-10" value="&lt;font style=&quot;font-size: 16px;&quot;&gt;processing&lt;/font&gt;" style="rounded=0;whiteSpace=wrap;html=1;" vertex="1" parent="1">
          <mxGeometry x="150" y="240" width="290" height="30" as="geometry" />
        </mxCell>
        <mxCell id="ZglaTu_Lin9Fp8b_h4Ue-11" value="&lt;font style=&quot;font-size: 16px;&quot;&gt;celery&lt;/font&gt;" style="rounded=0;whiteSpace=wrap;html=1;" vertex="1" parent="1">
          <mxGeometry x="150" y="280" width="70" height="30" as="geometry" />
        </mxCell>
        <mxCell id="ZglaTu_Lin9Fp8b_h4Ue-13" value="&lt;font style=&quot;font-size: 16px;&quot;&gt;mongo engine&lt;/font&gt;" style="rounded=0;whiteSpace=wrap;html=1;" vertex="1" parent="1">
          <mxGeometry x="150" y="320" width="160" height="30" as="geometry" />
        </mxCell>
        <mxCell id="ZglaTu_Lin9Fp8b_h4Ue-14" value="&lt;font style=&quot;font-size: 16px;&quot;&gt;parsers&lt;/font&gt;" style="rounded=0;whiteSpace=wrap;html=1;fillColor=#d5e8d4;strokeColor=#82b366;" vertex="1" parent="1">
          <mxGeometry x="230" y="280" width="80" height="30" as="geometry" />
        </mxCell>
        <mxCell id="ZglaTu_Lin9Fp8b_h4Ue-15" value="&lt;font style=&quot;font-size: 16px;&quot;&gt;elastic search&lt;/font&gt;" style="rounded=0;whiteSpace=wrap;html=1;" vertex="1" parent="1">
          <mxGeometry x="320" y="280" width="120" height="30" as="geometry" />
        </mxCell>
        <mxCell id="ZglaTu_Lin9Fp8b_h4Ue-16" value="&lt;font style=&quot;font-size: 16px;&quot;&gt;bin JSON&lt;/font&gt;" style="rounded=0;whiteSpace=wrap;html=1;" vertex="1" parent="1">
          <mxGeometry x="320" y="320" width="120" height="30" as="geometry" />
        </mxCell>
        <mxCell id="ZglaTu_Lin9Fp8b_h4Ue-17" value="&lt;font style=&quot;font-size: 16px;&quot;&gt;GPFS&lt;/font&gt;" style="strokeWidth=2;html=1;shape=mxgraph.flowchart.database;whiteSpace=wrap;" vertex="1" parent="1">
          <mxGeometry x="460" y="120" width="110" height="60" as="geometry" />
        </mxCell>
        <mxCell id="ZglaTu_Lin9Fp8b_h4Ue-18" value="&lt;font style=&quot;font-size: 16px;&quot;&gt;mongo&lt;/font&gt;" style="strokeWidth=2;html=1;shape=mxgraph.flowchart.database;whiteSpace=wrap;" vertex="1" parent="1">
          <mxGeometry x="460" y="200" width="110" height="60" as="geometry" />
        </mxCell>
        <mxCell id="ZglaTu_Lin9Fp8b_h4Ue-19" value="&lt;font style=&quot;font-size: 16px;&quot;&gt;elastic search&lt;/font&gt;" style="strokeWidth=2;html=1;shape=mxgraph.flowchart.database;whiteSpace=wrap;" vertex="1" parent="1">
          <mxGeometry x="590" y="120" width="110" height="60" as="geometry" />
        </mxCell>
        <mxCell id="ZglaTu_Lin9Fp8b_h4Ue-20" value="&lt;font style=&quot;font-size: 16px;&quot;&gt;Rabbit&lt;br&gt;MQ&lt;/font&gt;" style="shape=parallelogram;html=1;strokeWidth=2;perimeter=parallelogramPerimeter;whiteSpace=wrap;rounded=1;arcSize=12;size=0.23;" vertex="1" parent="1">
          <mxGeometry x="595" y="200" width="100" height="60" as="geometry" />
        </mxCell>
        <mxCell id="ZglaTu_Lin9Fp8b_h4Ue-21" value="&lt;font style=&quot;font-size: 16px;&quot;&gt;existing 3rd party&lt;/font&gt;" style="rounded=0;whiteSpace=wrap;html=1;" vertex="1" parent="1">
          <mxGeometry x="460" y="300" width="240" height="30" as="geometry" />
        </mxCell>
      </root>
    </mxGraphModel>
  </diagram>
</mxfile>
